<svg width="18" height="21" viewBox="0 0 18 21" fill="none" xmlns="http://www.w3.org/2000/svg">
<g clip-path="url(#clip0)">
<path d="M17.3642 1.46087L13.8095 0.523372C13.4232 0.421809 13.0268 0.652278 12.8695 1.06634L11.2289 5.44134C11.0853 5.82415 11.181 6.27337 11.4647 6.53509L13.536 8.47258C12.3056 11.4687 10.1557 13.9609 7.47939 15.3945L5.78408 13.0273C5.55166 12.703 5.16201 12.5937 4.82705 12.7577L0.998922 14.6327C0.633199 14.8163 0.431539 15.2695 0.520406 15.7109L1.34072 19.7734C1.42617 20.1952 1.75429 20.4999 2.14052 20.4999C10.8939 20.4999 17.9999 12.3945 17.9999 2.37493C17.9999 1.93743 17.7367 1.55853 17.3642 1.46087Z" fill="#282F35"/>
</g>
<defs>
<clipPath id="clip0">
<rect width="17.5" height="20" fill="white" transform="translate(0.5 0.5)"/>
</clipPath>
</defs>
</svg>
