<svg width="18" height="21" viewBox="0 0 18 21" fill="none" xmlns="http://www.w3.org/2000/svg">
<path d="M12.25 12.4902C11.1289 12.4902 10.5898 13.1152 8.75 13.1152C6.91016 13.1152 6.375 12.4902 5.25 12.4902C2.35156 12.4902 0 14.8418 0 17.7402V18.7402C0 19.7754 0.839844 20.6152 1.875 20.6152H15.625C16.6602 20.6152 17.5 19.7754 17.5 18.7402V17.7402C17.5 14.8418 15.1484 12.4902 12.25 12.4902ZM15.625 18.7402H1.875V17.7402C1.875 15.8809 3.39062 14.3652 5.25 14.3652C5.82031 14.3652 6.74609 14.9902 8.75 14.9902C10.7695 14.9902 11.6758 14.3652 12.25 14.3652C14.1094 14.3652 15.625 15.8809 15.625 17.7402V18.7402ZM8.75 11.8652C11.8555 11.8652 14.375 9.3457 14.375 6.24023C14.375 3.13477 11.8555 0.615234 8.75 0.615234C5.64453 0.615234 3.125 3.13477 3.125 6.24023C3.125 9.3457 5.64453 11.8652 8.75 11.8652ZM8.75 2.49023C10.8164 2.49023 12.5 4.17383 12.5 6.24023C12.5 8.30664 10.8164 9.99023 8.75 9.99023C6.68359 9.99023 5 8.30664 5 6.24023C5 4.17383 6.68359 2.49023 8.75 2.49023Z" fill="#393A48"/>
</svg>
