<svg width="24" height="25" viewBox="0 0 24 25" fill="none" xmlns="http://www.w3.org/2000/svg">
<path d="M20.4615 4.10279C19.36 2.99323 18.049 2.11356 16.6047 1.51487C15.1604 0.916186 13.6115 0.610407 12.048 0.615292C5.49452 0.615292 0.160523 5.94929 0.160523 12.5073C0.160523 14.6028 0.709523 16.6518 1.74902 18.4518L0.0615234 24.6153L6.36602 22.9608C8.10896 23.9102 10.0618 24.4083 12.0465 24.4098H12.051C18.6045 24.4098 23.943 19.0758 23.943 12.5178C23.947 10.9548 23.6413 9.40661 23.0434 7.96251C22.4456 6.51842 21.5676 5.20709 20.46 4.10429L20.4615 4.10279ZM12.051 22.4028C10.2798 22.4031 8.54102 21.927 7.01702 21.0243L6.65552 20.8083L2.91452 21.7878L3.91352 18.1413L3.67952 17.7663C2.68616 16.1924 2.16121 14.3684 2.16602 12.5073C2.1692 9.88543 3.21245 7.37192 5.06681 5.5184C6.92118 3.66488 9.43516 2.62278 12.057 2.62079C14.6955 2.62079 17.181 3.65279 19.0455 5.51729C19.9656 6.43407 20.695 7.5241 21.1913 8.72438C21.6877 9.92467 21.9413 11.2114 21.9375 12.5103C21.933 17.9658 17.499 22.4013 12.051 22.4013V22.4028ZM17.4705 14.9973C17.175 14.8473 15.7125 14.1303 15.441 14.0313C15.1695 13.9323 14.9715 13.8813 14.7705 14.1813C14.574 14.4768 14.0025 15.1473 13.8285 15.3483C13.6545 15.5448 13.482 15.5733 13.1865 15.4233C12.891 15.2733 11.9295 14.9598 10.7955 13.9473C9.91352 13.1598 9.31502 12.1848 9.14102 11.8893C8.96702 11.5938 9.12152 11.4303 9.27302 11.2848C9.40952 11.1528 9.56852 10.9383 9.71852 10.7643C9.86852 10.5903 9.91502 10.4688 10.014 10.2678C10.113 10.0713 10.065 9.89729 9.99002 9.74729C9.91502 9.59729 9.31952 8.13479 9.07652 7.53929C8.83802 6.95729 8.58902 7.03829 8.40602 7.02779C8.23202 7.01879 8.03552 7.01879 7.83902 7.01879C7.64252 7.01879 7.31852 7.09379 7.04702 7.38929C6.77552 7.68479 6.00602 8.40629 6.00602 9.86879C6.00602 11.3313 7.06952 12.7428 7.21952 12.9438C7.36952 13.1403 9.31502 16.1448 12.2955 17.4303C13.0035 17.7348 13.557 17.9178 13.9875 18.0588C14.7 18.2838 15.3465 18.2508 15.858 18.1758C16.4295 18.0918 17.616 17.4588 17.865 16.7643C18.114 16.0698 18.114 15.4758 18.039 15.3528C17.9685 15.2208 17.772 15.1473 17.472 14.9958L17.4705 14.9973Z" fill="#282F35"/>
</svg>
